<?xml version="1.0" encoding="utf-8"?>
<!-- Generator: Adobe Illustrator 24.3.0, SVG Export Plug-In . SVG Version: 6.00 Build 0)  -->
<svg version="1.1" xmlns="http://www.w3.org/2000/svg" xmlns:xlink="http://www.w3.org/1999/xlink" x="0px" y="0px"
	 viewBox="0 0 3710 3710" style="enable-background:new 0 0 3710 3710;" xml:space="preserve">
<style type="text/css">
	.st0{fill:url(#SVGID_1_);}
	.st1{fill:url(#SVGID_2_);}
	.st2{fill:#BDD0FB;}
	.st3{fill:url(#SVGID_3_);}
	.st4{fill:#91B3FA;}
	.st5{fill:#7D97F4;}
	.st6{fill:#0d7f4b;}
	.st7{fill:#15b36a;}
	.st8{filter:url(#Adobe_OpacityMaskFilter);}
	.st9{filter:url(#Adobe_OpacityMaskFilter_1_);}
	.st10{mask:url(#SVGID_4_);fill:url(#SVGID_5_);}
	.st11{opacity:0.53;fill:url(#SVGID_6_);}
	.st12{fill:url(#SVGID_7_);}
	.st13{fill:url(#SVGID_8_);}
	.st14{fill:url(#SVGID_9_);}
	.st15{fill:url(#SVGID_10_);}
	.st16{fill:url(#SVGID_11_);}
	.st17{opacity:0.78;fill:#FFFFFF;}
	.st18{fill:url(#SVGID_12_);}
	.st19{fill:url(#SVGID_13_);}
	.st20{fill:url(#SVGID_14_);}
	.st21{fill:#FFFFFF;}
	.st22{fill:url(#SVGID_15_);}
	.st23{fill:url(#SVGID_16_);}
	.st24{fill:url(#SVGID_17_);}
	.st25{fill:#15b36a}
	.st26{fill:url(#SVGID_18_);}
	.st27{fill:url(#SVGID_19_);}
	.st28{fill:url(#SVGID_20_);}
	.st29{fill:url(#SVGID_21_);}
	.st30{fill:url(#SVGID_22_);}
	.st31{fill:url(#SVGID_23_);}
	.st32{fill:url(#SVGID_24_);}
	.st33{fill:url(#SVGID_25_);}
	.st34{fill:url(#SVGID_26_);}
	.st35{fill:url(#SVGID_27_);}
	.st36{fill:url(#SVGID_28_);}
	.st37{fill:url(#SVGID_29_);}
	.st38{fill:url(#SVGID_30_);}
	.st39{fill:url(#SVGID_31_);}
	.st40{fill:url(#SVGID_32_);}
	.st41{fill:url(#SVGID_33_);}
	.st42{fill:url(#SVGID_34_);}
	.st43{fill:url(#SVGID_35_);}
	.st44{fill:url(#SVGID_36_);}
	.st45{fill:url(#SVGID_37_);}
	.st46{fill:url(#SVGID_38_);}
	.st47{fill:url(#SVGID_39_);}
	.st48{fill:#0d7f4b;}
	.st49{fill:url(#SVGID_40_);}
	.st50{fill:url(#SVGID_41_);}
	.st51{fill:url(#SVGID_42_);}
	.st52{fill:url(#SVGID_43_);}
	.st53{fill:url(#SVGID_44_);}
	.st54{fill:url(#SVGID_45_);}
	.st55{fill:url(#SVGID_46_);}
	.st56{fill:url(#SVGID_47_);}
	.st57{fill:url(#SVGID_48_);}
	.st58{fill:url(#SVGID_49_);}
	.st59{fill:url(#SVGID_50_);}
	.st60{fill:url(#SVGID_51_);}
	.st61{fill:url(#SVGID_52_);}
	.st62{fill:url(#SVGID_53_);}
	.st63{fill:url(#SVGID_54_);}
	.st64{fill:url(#SVGID_55_);}
	.st65{fill:url(#SVGID_56_);}
	.st66{fill:url(#SVGID_57_);}
	.st67{fill:url(#SVGID_58_);}
</style>
<g id="Background">
</g>
<g id="Illustration">
	<g>
		<linearGradient id="SVGID_1_" gradientUnits="userSpaceOnUse" x1="3895.1321" y1="4041.6741" x2="1439.4983" y2="1427.6129">
			<stop  offset="0" style="stop-color:#DAE3FE"/>
			<stop  offset="1" style="stop-color:#E9EFFD"/>
		</linearGradient>
		<path class="st0" d="M3157.8,2992.9c-90.7,93.4-171.8,148.4-233.9,189.8c-605.7,404.4-1298,287.9-1512.1,248
			c-345.4-64.3-636.9-109.6-887.4-335.9C-44.6,2580.6-16.9,1508,418,843.5C469.5,764.7,903.8,121,1597.6,30.3
			c17-2.2,29.6-3.5,40.7-4.7c107.3-11.4,772.5-71.3,1314.8,383c77.6,65,202.6,182.4,318.4,361.3
			C3695.2,1424.3,3696.6,2437.6,3157.8,2992.9z"/>
		<g>
			<linearGradient id="SVGID_2_" gradientUnits="userSpaceOnUse" x1="2604.0813" y1="2260.7488" x2="3392.1506" y2="2260.7488">
				<stop  offset="0" style="stop-color:#4F52FF"/>
				<stop  offset="1" style="stop-color:#4042E2"/>
			</linearGradient>
			<path class="st1" d="M2829.4,1279.4l308.9-71.9c0,0,206.6-18.6,234.5,165c27.9,183.6,19.8,1271.3,11.1,1495.6
				c-2.9,73.9-2.5,142.3,3.8,201.8c13.1,124.1-83.7,232.5-208.5,234.6l-575.1,10L2829.4,1279.4z"/>
			<g>
				<path class="st2" d="M2665,3402.9c0,0,61.7-865.4,500.7-1392.9c5.7-6.9,15.6-5.2,18.7,3.3
					C3232.2,2147,3501.1,3006.3,2665,3402.9z"/>
				<linearGradient id="SVGID_3_" gradientUnits="userSpaceOnUse" x1="2682.2112" y1="2810.1685" x2="3146.7866" y2="2810.1685">
					<stop  offset="0" style="stop-color:#DAE3FE"/>
					<stop  offset="1" style="stop-color:#E9EFFD"/>
				</linearGradient>
				<path class="st3" d="M3146.8,2261.2c-3.7,50.5-11,100.3-19.5,150c-8.8,49.6-19,99.1-31.2,148c-24.2,98-54.4,194.6-91.6,288.6
					c-18.7,46.9-38.6,93.4-60.9,138.9c-10.8,22.9-22.8,45.1-34.3,67.6c-12.3,22.1-24.2,44.4-37.5,66
					c-51.4,87.1-111.6,169.2-180.3,243c-2,2.2-5.5,2.3-7.7,0.3c-2.1-1.9-2.3-5.1-0.6-7.3l0.1-0.1c61.1-79.2,116.2-162.5,164-250
					c12.3-21.6,23.3-44,35-66c10.9-22.4,22.3-44.5,32.4-67.3c5.1-11.4,10.6-22.5,15.5-34l15-34.2c4.9-11.4,9.6-23,14.4-34.5
					c4.9-11.5,9.4-23.1,13.9-34.7c9.3-23.1,17.9-46.5,26.6-69.9c8.3-23.5,16.6-47,24.4-70.7c16-47.2,30.2-95.1,44-143.1
					c13.4-48.1,26-96.4,37.2-145.1c11.4-48.6,21.6-97.7,30.2-146.8l0-0.2c0.5-3,3.3-4.9,6.3-4.4
					C3145.1,2255.9,3147,2258.4,3146.8,2261.2z"/>
			</g>
			<g>
				<path class="st4" d="M2719.5,3308.2c0,0,452.5-761.1,944.8-773.1c8.7-0.2,15.4,7.8,13.6,16.4
					C3656.9,2651,3510.3,3171.8,2719.5,3308.2z"/>
				<path class="st2" d="M3560,2655.9c-29.8,31.3-60.5,61.5-91.7,91.3c-15.7,14.7-31.5,29.5-47.4,44c-16,14.4-31.9,29-48.1,43.2
					c-64.6,57.1-131.2,111.8-199.6,164.3c-33.9,26.6-69.1,51.6-103.7,77.2l-53.1,37c-8.9,6.1-17.7,12.4-26.6,18.4l-27.1,17.7
					c-71.5,48.1-146.3,91.3-221.6,133.2c-2.6,1.5-5.9,0.5-7.4-2.1c-1.4-2.6-0.5-5.8,2-7.3l0.1-0.1l55.6-32.6l27.8-16.3
					c9.2-5.6,18.2-11.4,27.3-17.1l54.6-34.2c18-11.7,35.8-23.8,53.6-35.6l26.8-17.9l26.4-18.5l52.7-37
					c34.5-25.6,69.4-50.6,103.1-77.2c34.2-26,67.6-53,101-79.9l49.5-41.2l48.9-41.9c16.3-14,32.2-28.4,48.4-42.5
					c16-14.3,31.8-28.8,47.7-43.3c31.5-29.1,62.8-58.6,92.9-89l0.1-0.1c2.1-2.1,5.6-2.2,7.7,0
					C3562,2650.4,3562.1,2653.7,3560,2655.9z"/>
			</g>
			<path class="st5" d="M2201.4,1294.4c0,0,562.5,30.9,937-86.9c0,0-248.9-17.1-248.9,557.7c0,439.4,65.2,1278.1,8.3,1437.4
				c-56.9,159.2-269.7,373.2-574.7,189.3C2018,3207.9,2201.4,1294.4,2201.4,1294.4z"/>
			<path class="st6" d="M2051.8,432.7c0,0,620.7,67.7,700.6-37.5c0,0-63.6-189.3-252.5-176.7C2311,231,2051.8,432.7,2051.8,432.7z"
				/>
			<path class="st7" d="M33.2,645.7C87.3,1253.9,201,2540.4,250.5,3167.1c11,139.7,123,250.1,262.9,259
				c498.2,32,1619.4,94,2049.7,36.3h0c-98.6-48.6-160.6-149.3-159.7-259.2l22.8-2812.2c0.8-99.4,99.8-170.8,192.8-135.9
				c58.6,22,103,68.8,133.5,139.9c-40.6-118.4-104.5-205-252.5-176.7c0,0-1447.2,14.5-2149.4,58C159.7,288.2,16.3,455.3,33.2,645.7z
				"/>
			<defs>
				<filter id="Adobe_OpacityMaskFilter" filterUnits="userSpaceOnUse" x="88.5" y="282" width="2338.7" height="3161.8">
					<feFlood  style="flood-color:white;flood-opacity:1" result="back"/>
					<feBlend  in="SourceGraphic" in2="back" mode="normal"/>
				</filter>
			</defs>
			<mask maskUnits="userSpaceOnUse" x="88.5" y="282" width="2338.7" height="3161.8" id="SVGID_4_">
				<g class="st8">
					<defs>
						<filter id="Adobe_OpacityMaskFilter_1_" filterUnits="userSpaceOnUse" x="88.5" y="282" width="2338.7" height="3161.8">
							<feFlood  style="flood-color:white;flood-opacity:1" result="back"/>
							<feBlend  in="SourceGraphic" in2="back" mode="normal"/>
						</filter>
					</defs>
					<mask maskUnits="userSpaceOnUse" x="88.5" y="282" width="2338.7" height="3161.8" id="SVGID_4_">
						<g class="st9">
						</g>
					</mask>
					<linearGradient id="SVGID_5_" gradientUnits="userSpaceOnUse" x1="2137.0649" y1="878.3942" x2="-857.3022" y2="4710.2651">
						<stop  offset="0" style="stop-color:#FFFFFF"/>
						<stop  offset="1" style="stop-color:#000000"/>
					</linearGradient>
					<path class="st10" d="M391.2,356.9L2335.8,282c-80.2,593.8-46.4,1802.9-15.8,2994.6c1.8,70.6,43.2,134.2,107.1,164.4l0,0
						c0,0-1297,14.9-1854.3-24.6c-131.2-9.3-238.3-108.6-257.8-238.7C238.6,2667.2,55.6,1348.3,93.7,650
						C102.4,490.1,231.2,363.1,391.2,356.9z"/>
				</g>
			</mask>
			<linearGradient id="SVGID_6_" gradientUnits="userSpaceOnUse" x1="2137.0649" y1="878.3942" x2="-857.3022" y2="4710.2651">
				<stop  offset="0" style="stop-color:#FFFFFF"/>
				<stop  offset="1" style="stop-color:#FFFFFF"/>
			</linearGradient>
			<path class="st11" d="M391.2,356.9L2335.8,282c-80.2,593.8-46.4,1802.9-15.8,2994.6c1.8,70.6,43.2,134.2,107.1,164.4l0,0
				c0,0-1297,14.9-1854.3-24.6c-131.2-9.3-238.3-108.6-257.8-238.7C238.6,2667.2,55.6,1348.3,93.7,650
				C102.4,490.1,231.2,363.1,391.2,356.9z"/>
			<g>
				<linearGradient id="SVGID_7_" gradientUnits="userSpaceOnUse" x1="365.0423" y1="1374.7439" x2="675.9229" y2="1374.7439">
					<stop  offset="0" style="stop-color:#DAE3FE"/>
					<stop  offset="1" style="stop-color:#E9EFFD"/>
				</linearGradient>
				<path class="st12" d="M365.5,1277.9l22.7,217.8c4.2,39.9,37,70.7,77.2,72.3l126.8,4.9c45.7,1.8,83.8-34.8,83.8-80.6v-235
					c0-47.2-40.3-84.3-87.3-80.4l-149.5,12.3C394,1192.8,360.8,1232.9,365.5,1277.9z"/>
				<linearGradient id="SVGID_8_" gradientUnits="userSpaceOnUse" x1="767.1915" y1="1239.6283" x2="2084.4976" y2="1239.6283">
					<stop  offset="0" style="stop-color:#DAE3FE"/>
					<stop  offset="1" style="stop-color:#E9EFFD"/>
				</linearGradient>
				<path class="st13" d="M811.4,1210.8c211.1-6.6,1021.3-32.9,1225.9-39.6c25.8-0.8,47.1,19.9,47.1,45.7l0,0
					c0,24.6-19.4,44.8-44,45.7L815.4,1308c-23.6,0.9-44-16.4-47-39.8l-0.8-5.9C764.1,1235.5,784.4,1211.6,811.4,1210.8z"/>
				<linearGradient id="SVGID_9_" gradientUnits="userSpaceOnUse" x1="791.3407" y1="1451.1003" x2="1675.5508" y2="1451.1003">
					<stop  offset="0" style="stop-color:#DAE3FE"/>
					<stop  offset="1" style="stop-color:#E9EFFD"/>
				</linearGradient>
				<path class="st14" d="M798.2,1497.9L798.2,1497.9c3.6,6,10.1,9.6,17.1,9.5l841.2-18.3c10.6-0.2,19-8.9,19-19.4v-55.5
					c0-11-9.2-19.8-20.2-19.4l-817.8,30.6C801.2,1426.7,779.5,1466.6,798.2,1497.9z"/>
			</g>
			<g>
				<linearGradient id="SVGID_10_" gradientUnits="userSpaceOnUse" x1="365.0423" y1="1979.2677" x2="675.9229" y2="1979.2677">
					<stop  offset="0" style="stop-color:#DAE3FE"/>
					<stop  offset="1" style="stop-color:#E9EFFD"/>
				</linearGradient>
				<path class="st15" d="M365.5,1882.4l22.7,217.8c4.2,39.9,37,70.7,77.2,72.3l126.8,4.9c45.7,1.8,83.8-34.8,83.8-80.6v-235
					c0-47.2-40.3-84.3-87.3-80.4l-149.5,12.3C394,1797.4,360.8,1837.4,365.5,1882.4z"/>
				<linearGradient id="SVGID_11_" gradientUnits="userSpaceOnUse" x1="767.1915" y1="1844.1525" x2="2084.4976" y2="1844.1525">
					<stop  offset="0" style="stop-color:#DAE3FE"/>
					<stop  offset="1" style="stop-color:#E9EFFD"/>
				</linearGradient>
				<path class="st16" d="M811.4,1815.3c211.1-6.6,1021.3-32.9,1225.9-39.6c25.8-0.8,47.1,19.9,47.1,45.7v0
					c0,24.6-19.4,44.8-44,45.7l-1225.1,45.5c-23.6,0.9-44-16.4-47-39.8l-0.8-5.9C764.1,1840.1,784.4,1816.1,811.4,1815.3z"/>
				<path class="st17" d="M798.2,2102.4L798.2,2102.4c3.6,6,10.1,9.6,17.1,9.5l841.2-18.3c10.6-0.2,19-8.9,19-19.4v-55.5
					c0-11-9.2-19.8-20.2-19.4l-817.8,30.6C801.2,2031.3,779.5,2071.1,798.2,2102.4z"/>
			</g>
			<g>
				<linearGradient id="SVGID_12_" gradientUnits="userSpaceOnUse" x1="365.0423" y1="2583.7915" x2="675.9229" y2="2583.7915">
					<stop  offset="0" style="stop-color:#DAE3FE"/>
					<stop  offset="1" style="stop-color:#E9EFFD"/>
				</linearGradient>
				<path class="st18" d="M365.5,2487l22.7,217.8c4.2,39.9,37,70.7,77.2,72.3l126.8,4.9c45.7,1.8,83.8-34.8,83.8-80.6v-235
					c0-47.2-40.3-84.3-87.3-80.4l-149.5,12.3C394,2401.9,360.8,2442,365.5,2487z"/>
				<linearGradient id="SVGID_13_" gradientUnits="userSpaceOnUse" x1="767.1915" y1="2448.6763" x2="2084.4976" y2="2448.6763">
					<stop  offset="0" style="stop-color:#DAE3FE"/>
					<stop  offset="1" style="stop-color:#E9EFFD"/>
				</linearGradient>
				<path class="st19" d="M811.4,2419.8c211.1-6.6,1021.3-32.9,1225.9-39.6c25.8-0.8,47.1,19.9,47.1,45.7l0,0
					c0,24.6-19.4,44.8-44,45.7l-1225.1,45.5c-23.6,0.9-44-16.4-47-39.8l-0.8-5.9C764.1,2444.6,784.4,2420.7,811.4,2419.8z"/>
				<linearGradient id="SVGID_14_" gradientUnits="userSpaceOnUse" x1="791.3407" y1="2660.1482" x2="1675.5508" y2="2660.1482">
					<stop  offset="0" style="stop-color:#DAE3FE"/>
					<stop  offset="1" style="stop-color:#E9EFFD"/>
				</linearGradient>
				<path class="st20" d="M798.2,2707L798.2,2707c3.6,6,10.1,9.6,17.1,9.5l841.2-18.3c10.6-0.2,19-8.9,19-19.4v-55.5
					c0-11-9.2-19.8-20.2-19.4l-817.8,30.6C801.2,2635.8,779.5,2675.7,798.2,2707z"/>
			</g>
			<path class="st21" d="M2816.3,2550.7c-5.1,0-9.4-4.1-9.5-9.3c0-0.3-0.6-30.1-3.4-132.3c-0.1-5.2,4-9.6,9.2-9.7
				c5.1-0.3,9.6,4,9.7,9.2c2.9,102.3,3.5,132.2,3.5,132.5c0.1,5.2-4.1,9.5-9.3,9.6C2816.5,2550.7,2816.4,2550.7,2816.3,2550.7z"/>
			<path class="st21" d="M2809.5,2301.2c-5.1,0-9.3-4-9.5-9.2c-2-66.5-5.2-140.1-8.6-218c-4.5-105.2-9.2-214-11.7-318.8
				c-6.5-276.6,39.1-382.8,78.5-423.2c21.4-21.9,39.4-22.6,41.4-22.6c5.2,0,9.5,4.2,9.5,9.5c0,5.2-4.1,9.4-9.3,9.5
				c-2.2,0.2-110.9,12.1-101.1,426.4c2.5,104.6,7.2,213.3,11.7,318.5c3.4,77.9,6.5,151.5,8.6,218.2c0.2,5.2-3.9,9.6-9.2,9.8
				C2809.7,2301.2,2809.6,2301.2,2809.5,2301.2z"/>
			<linearGradient id="SVGID_15_" gradientUnits="userSpaceOnUse" x1="1831.6113" y1="2453.4619" x2="1417.7235" y2="3513.1326">
				<stop  offset="0" style="stop-color:#09005D"/>
				<stop  offset="1" style="stop-color:#1A0F91"/>
			</linearGradient>
			<path class="st22" d="M1437.6,3321.4c-9.6,0-19.2-4.5-29.4-13.9c-37.3-34.3-46.9-86.9-49.5-137c-17.2,19.3-34.8,38-52.2,56.6
				l-9.6-9c20.4-21.8,41.1-43.8,61.1-66.6c-1.7-68.6,1.5-137.9,9.4-206.1c4.8-41.8,11.8-86,29.9-126.4c5.8-12.9,15.4-31.3,31.8-42.8
				c17.2-12,39.8-13.3,54.9-3.2c17,11.4,21.5,33,23.5,48.3c11.5,89.7-23.5,171.9-54.8,225.1c-23.3,39.5-51.5,75.6-81.4,109.9
				c1.5,51.3,8.7,107.4,45.8,141.6c7.8,7.2,14.7,10.6,21,10.4c10.5-0.4,19-10.6,25.9-20.5c31.4-45,55.9-93.8,73-145.6
				c2-15.6,6.4-30.9,13-45.1l12.4,4.3c-3.6,14.8-7.7,29.4-12.4,43.7c-1.7,14.7-1.2,29.6,1.7,44.1c1.5,7.7,8,33.2,26.8,36.7
				c14,2.6,28.6-8,44.8-32.5l66.1-100.5l-8.4,36c-2.9,12.7-7.9,43,9.8,50.3c10.1,4.2,20.8-1.9,33.1-8.8c12.3-6.9,25-14.1,39.4-12.2
				l6.8,0.9l-1.2,6.8c-0.7,3.9-6,37.9,11.6,41.8c8.1,1.8,14.8-3.8,25-13.2c8-7.4,16.3-15.1,27.2-17.7l3.1,12.8
				c-7.6,1.8-14.2,8-21.3,14.5c-10,9.3-21.4,19.8-36.8,16.4c-20.1-4.4-25-27.1-22.9-49.2c-7.9,1.2-16,5.7-24.5,10.5
				c-13.4,7.6-28.6,16.1-44.6,9.5c-13.2-5.4-20.4-18.5-20.9-37.3l-30.6,46.6c-12.4,18.8-31.8,43.2-58.3,38.2
				c-18.1-3.5-32.1-21.1-37.3-47.1c-0.7-3.6-1.3-7.3-1.8-11c-16.2,40.3-37,78.6-62.1,114.5c-8.3,11.8-19.8,25.5-36.2,26.1
				C1438.3,3321.4,1437.9,3321.4,1437.6,3321.4z M1460.5,2779.3c-8.7,0-17.4,3.3-23.8,7.7c-13.8,9.7-22.2,26-27.4,37.4
				c-17.4,38.7-24.1,81.7-28.9,122.5c-7.3,62.7-10.5,126.4-9.6,189.5c25.9-30.5,50.1-62.5,70.4-96.9
				c30.3-51.4,64.2-130.7,53.1-216.7c-2.6-20.2-8.2-32.6-17.8-39C1471.8,2780.6,1466.2,2779.3,1460.5,2779.3z"/>
			<path class="st17" d="M2017.1,938.6L468,984.6c-55.6,1.7-102.4-41.5-105.1-97.1l-5.7-115.9c-2.8-57.3,42-105.7,99.4-107.2
				l1556.8-41.2c58.2-1.5,105.9,45.8,104.9,104l-2,111.1C2115.3,892.8,2071.7,937,2017.1,938.6z"/>
		</g>
		<g>
			
				<linearGradient id="SVGID_16_" gradientUnits="userSpaceOnUse" x1="-1938.4309" y1="-10507.3359" x2="-1863.2963" y2="-10507.3359" gradientTransform="matrix(-0.9813 0.1926 -0.1926 -0.9813 -2396.9971 -7779.7432)">
				<stop  offset="0" style="stop-color:#FEBBBA"/>
				<stop  offset="1" style="stop-color:#FF928E"/>
			</linearGradient>
			<path class="st23" d="M1529.2,2159.1c0,0-51.7-33.9-58.8-26.1c-2.5,2.8-8.5,12.2-14,22.5c-3.9,7.3-2.7,16.2,3,22.2l13.3,13.8
				c12.7,13.1,34.2,12.2,45.4-2.2C1523.7,2182,1528.2,2172.2,1529.2,2159.1z"/>
			<g>
				<g>
					
						<linearGradient id="SVGID_17_" gradientUnits="userSpaceOnUse" x1="176.6589" y1="2083.7058" x2="518.7897" y2="2083.7058" gradientTransform="matrix(1 0 0 1 1290.1023 0)">
						<stop  offset="0" style="stop-color:#FEBBBA"/>
						<stop  offset="1" style="stop-color:#FF928E"/>
					</linearGradient>
					<path class="st24" d="M1581.8,2094.7c0,0-17.7-46.7-38.4-42.4c-20.7,4.3-43.4,20.2-43.4,20.2l-33.3,45
						c0,0,93.4,36.8,126.3,15.7c0,0,95.4,16.5,215.9-3.3c-17.4-36.8-27.8-73.7-33.9-102.3C1713.9,2062.2,1648.2,2088,1581.8,2094.7z
						"/>
					<path class="st25" d="M2087.2,1756.2c0,0-136.6,172-312.3,271.5c6.1,28.6,16.5,65.5,33.9,102.3c91.1-15,196.6-50.6,286-129.9
						L2087.2,1756.2z"/>
				</g>
				<path class="st25" d="M2257.6,2518.7c-26.7-126.9-53.4-200.3-142.9-440.8c-28.1-75.7-53.7-152.3-41.4-232.1l13.9-89.6
					c0,0,173.8-58.8,366.5-2.5c0,0,262.9,114.2,84.3,678.2C2457.6,2521.9,2363.4,2547.6,2257.6,2518.7z"/>
				
					<linearGradient id="SVGID_18_" gradientUnits="userSpaceOnUse" x1="942.1742" y1="1741.5049" x2="887.3115" y2="1576.9164" gradientTransform="matrix(1 0 0 1 1290.1023 0)">
					<stop  offset="0" style="stop-color:#FEBBBA"/>
					<stop  offset="1" style="stop-color:#FF928E"/>
				</linearGradient>
				<path class="st26" d="M2116.8,1641.8l45.1,108.3c2.8,6.8,9,11.7,16.3,13c26,4.5,88.8,11.4,130.1-15.7c4.9-3.2,6.2-9.9,2.8-14.8
					l-83.3-119.6L2116.8,1641.8z"/>
				<g>
					<linearGradient id="SVGID_19_" gradientUnits="userSpaceOnUse" x1="2104.126" y1="1539.525" x2="2301.3135" y2="1625.2589">
						<stop  offset="0" style="stop-color:#FEBBBA"/>
						<stop  offset="1" style="stop-color:#FF928E"/>
					</linearGradient>
					<path class="st27" d="M2163.4,1476.1c-1.9,1.8-79.9,154.9-79.9,154.9l88.4,42.7l95.5-134.2
						C2267.4,1539.6,2195.1,1446.3,2163.4,1476.1z"/>
					
						<linearGradient id="SVGID_20_" gradientUnits="userSpaceOnUse" x1="4922.104" y1="5723.1895" x2="5157.6572" y2="5723.1895" gradientTransform="matrix(-0.6854 -0.7281 -0.7281 0.6854 9787.373 1318.7853)">
						<stop  offset="0" style="stop-color:#09005D"/>
						<stop  offset="1" style="stop-color:#1A0F91"/>
					</linearGradient>
					<path class="st28" d="M2227.2,1555.7l-44.1,73.5c-0.7,1.1-1.5,2.1-2.4,3c-5.2,4.9-23.2,19.1-37.1-0.3
						c-11.8-16.5-22.9-31.5-34.8-37.7c-6.9-3.6-15.5-0.7-19,6.3c-7.3,14.4-21.3,43.7-30.2,71.6c-2.2,7,1.4,14.5,8.2,17.2
						c17.9,7.3,53.3,20.4,84.7,24.7c5.2,0.7,10.3-1.5,13.3-5.7c13.5-18.5,51.6-70.2,64.6-83.2c12.1-12,34.3-7.5,44.4-4.6
						c3.8,1.1,7.9,0.6,11.3-1.5c10.2-6.1,28-21.4,11.7-47.3c-4-6.4-2-15,4.4-19.2c11.4-7.5,23.7-21.5,12-44.3
						c-11.9-23-33.2-25.1-47.6-23.3c-6.4,0.8-12.9-2.6-15.4-8.5c-1.1-2.7-3.3-4.9-7.3-5.7c-7.6-1.5-12.6-8.5-11.1-16.1
						c2.6-13,0.6-29.9-20.2-41.4c-38.1-21-71.6,13.2-80,42c-8.5,28.8,34.2,49.2,61,52.6c19.7,2.5,30.5,24,34.9,35.2
						C2229.9,1547.4,2229.5,1551.9,2227.2,1555.7z"/>
					<linearGradient id="SVGID_21_" gradientUnits="userSpaceOnUse" x1="2091.8381" y1="1567.7865" x2="2289.0256" y2="1653.5203">
						<stop  offset="0" style="stop-color:#FEBBBA"/>
						<stop  offset="1" style="stop-color:#FF928E"/>
					</linearGradient>
					<path class="st29" d="M2211.8,1647.2c0,0,19-44.6,40.7-42.8c21.7,1.8,38.8,23.5,11.9,47.8
						C2230.9,1682.4,2211.8,1647.2,2211.8,1647.2z"/>
				</g>
				<g>
					
						<linearGradient id="SVGID_22_" gradientUnits="userSpaceOnUse" x1="2275.177" y1="3648.8098" x2="2520.238" y2="3648.8098" gradientTransform="matrix(-1 0 0 1 4753.7588 0)">
						<stop  offset="0" style="stop-color:#4042E2"/>
						<stop  offset="1" style="stop-color:#4F52FF"/>
					</linearGradient>
					<path class="st30" d="M2240.4,3637c42,3.6,114.8,9.5,172.3,12.1c34.5,1.5,54.4-1.9,65.9-6.4c0,1.3-0.1,2.5-0.1,3.6
						c-0.3,6-5.2,10.9-11.3,11.2c-108.5,6.1-194.9,2.1-225.6,0.2c-6.4-0.4-10.1-7.3-6.9-12.7
						C2236.3,3642.2,2238.3,3639.6,2240.4,3637z"/>
					<linearGradient id="SVGID_23_" gradientUnits="userSpaceOnUse" x1="3070.0857" y1="3419.5322" x2="2182.7422" y2="3672.446">
						<stop  offset="0" style="stop-color:#09005D"/>
						<stop  offset="1" style="stop-color:#1A0F91"/>
					</linearGradient>
					<path class="st31" d="M2412.7,3649c-57.4-2.5-130.3-8.4-172.3-12.1c41.3-50.6,172.3-84.8,172.3-84.8h37
						c25.4,36.7,29.1,71.6,28.9,90.4C2467.1,3647.1,2447.3,3650.5,2412.7,3649z"/>
					
						<linearGradient id="SVGID_24_" gradientUnits="userSpaceOnUse" x1="2297.8015" y1="3533.7266" x2="2366.8311" y2="3533.7266" gradientTransform="matrix(-1 0 0 1 4753.7588 0)">
						<stop  offset="0" style="stop-color:#FEBBBA"/>
						<stop  offset="1" style="stop-color:#FF928E"/>
					</linearGradient>
					<path class="st32" d="M2456,3491.8l-3.5,68.5c-0.4,7.4-5.9,13.7-13.4,14.7c-7.4,1.1-17.3,1.2-27.8-2.3
						c-6.5-2.2-11.3-7.6-12.4-14.2l-12-66.7H2456z"/>
				</g>
				<g>
					<g>
						
							<linearGradient id="SVGID_25_" gradientUnits="userSpaceOnUse" x1="1786.627" y1="3643.5249" x2="1880.538" y2="3643.5249" gradientTransform="matrix(-1 0 0 1 4753.7588 0)">
							<stop  offset="0" style="stop-color:#4042E2"/>
							<stop  offset="1" style="stop-color:#4F52FF"/>
						</linearGradient>
						<path class="st33" d="M2936.6,3648.5c18.2-2.5,26.4-12,29.9-22.1c0,0.1,0,0.2,0.1,0.3c2.7,10.7-3.5,21.7-15.9,27
							c-15,6.4-31.4,7.4-44.1,6.9c-13.7-0.6-26.2-6.2-33.1-15.3l-0.1-0.1C2886.9,3651.9,2906.2,3652.7,2936.6,3648.5z"/>
						<linearGradient id="SVGID_26_" gradientUnits="userSpaceOnUse" x1="2575.406" y1="3368.1274" x2="3128.3879" y2="3728.2087">
							<stop  offset="0" style="stop-color:#09005D"/>
							<stop  offset="1" style="stop-color:#1A0F91"/>
						</linearGradient>
						<path class="st34" d="M2850.7,3491.3h30.5c46.5-0.9,75.7,97.1,85.2,135c-3.5,10.1-11.7,19.6-29.9,22.1
							c-30.4,4.2-49.6,3.4-63.3-3.4c-25.1-33-37.6-81.4-43.5-109.7C2822.9,3503.3,2850.7,3491.3,2850.7,3491.3z"/>
					</g>
					
						<linearGradient id="SVGID_27_" gradientUnits="userSpaceOnUse" x1="1858.9589" y1="3476.1819" x2="1941.4551" y2="3476.1819" gradientTransform="matrix(-1 0 0 1 4753.7588 0)">
						<stop  offset="0" style="stop-color:#FEBBBA"/>
						<stop  offset="1" style="stop-color:#FF928E"/>
					</linearGradient>
					<path class="st35" d="M2877.3,3427.7l16.9,67.4c2.1,8.3-1.9,16.8-9.5,20.7c-9.5,4.9-22.8,10-35.1,8.5
						c-5.8-0.7-10.6-4.8-12.5-10.2l-24.9-70.9L2877.3,3427.7z"/>
				</g>
				
					<linearGradient id="SVGID_28_" gradientUnits="userSpaceOnUse" x1="-485.6764" y1="3597.311" x2="773.1428" y2="1856.9332" gradientTransform="matrix(-1 0 0 1 2420.7585 0)">
					<stop  offset="0" style="stop-color:#09005D"/>
					<stop  offset="1" style="stop-color:#1A0F91"/>
				</linearGradient>
				<path class="st36" d="M2897.5,3447.2c-21.1,18.7-89.7,21.2-89.7,21.2c-247-592.8-350-756-350-756
					c35.7,223.8,7.7,798.1,7.7,798.1c-40.8,18-93.3,0-93.3,0c-3.3-366.3-54.9-759.9-121.4-1011.8c166.9-3.8,257.7-40.1,286.7-63.1
					C2676.7,2660,2897.5,3447.2,2897.5,3447.2z"/>
				<g>
					
						<linearGradient id="SVGID_29_" gradientUnits="userSpaceOnUse" x1="103.0006" y1="4026.0115" x2="95.3452" y2="3319.1541" gradientTransform="matrix(0.9919 -0.127 0.127 0.9919 1989.9969 -609.5969)">
						<stop  offset="0" style="stop-color:#FF928E"/>
						<stop  offset="1" style="stop-color:#FE7062"/>
					</linearGradient>
					<path class="st37" d="M2208.8,2664.3l30.7,191.1c5.4,33.3,36.2,56.4,69.9,52.3l459.8-56.1c22.5-2.7,39.5-21.5,40-44.1
						c1-49.4-1-137.2-21.7-217.3L2208.8,2664.3z"/>
					<path class="st21" d="M2324.9,2894.9c-0.8,0-1.4-0.6-1.5-1.3c-0.1-0.8,0.5-1.6,1.3-1.7l12-1.5c0.9-0.1,1.6,0.5,1.7,1.3
						c0.1,0.8-0.5,1.6-1.3,1.7l-12,1.5C2325,2894.9,2325,2894.9,2324.9,2894.9z M2296.9,2894.4c-0.1,0-0.2,0-0.4,0
						c-4-1-7.9-2.4-11.6-4.2c-0.8-0.4-1.1-1.3-0.7-2c0.4-0.8,1.3-1.1,2-0.7c3.5,1.7,7.3,3,11.1,4c0.8,0.2,1.3,1,1.1,1.8
						C2298.2,2893.9,2297.6,2894.4,2296.9,2894.4z M2364.9,2890c-0.8,0-1.4-0.6-1.5-1.3c-0.1-0.8,0.5-1.6,1.3-1.7l12-1.5
						c0.8-0.1,1.6,0.5,1.7,1.3c0.1,0.8-0.5,1.6-1.3,1.7l-12,1.5C2365.1,2890,2365,2890,2364.9,2890z M2405,2885.1
						c-0.8,0-1.4-0.6-1.5-1.3c-0.1-0.8,0.5-1.6,1.3-1.7l12-1.5c0.9-0.1,1.6,0.5,1.7,1.3c0.1,0.8-0.5,1.6-1.3,1.7l-12,1.5
						C2405.1,2885.1,2405,2885.1,2405,2885.1z M2445,2880.3c-0.8,0-1.4-0.6-1.5-1.3c-0.1-0.8,0.5-1.6,1.3-1.7l12-1.5
						c0.9-0.1,1.6,0.5,1.7,1.3c0.1,0.8-0.5,1.6-1.3,1.7l-12,1.5C2445.1,2880.2,2445.1,2880.3,2445,2880.3z M2485,2875.4
						c-0.8,0-1.4-0.6-1.5-1.3c-0.1-0.8,0.5-1.6,1.3-1.7l12-1.5c0.9-0.1,1.6,0.5,1.7,1.3c0.1,0.8-0.5,1.6-1.3,1.7l-12,1.5
						C2485.2,2875.4,2485.1,2875.4,2485,2875.4z M2263.7,2872.8c-0.5,0-0.9-0.2-1.2-0.6c-2.5-3.3-4.7-6.8-6.5-10.5
						c-0.4-0.8-0.1-1.7,0.7-2c0.8-0.4,1.7-0.1,2,0.7c1.7,3.5,3.8,6.9,6.2,10c0.5,0.7,0.4,1.6-0.3,2.1
						C2264.4,2872.7,2264.1,2872.8,2263.7,2872.8z M2525.1,2870.5c-0.8,0-1.4-0.6-1.5-1.3c-0.1-0.8,0.5-1.6,1.3-1.7l12-1.5
						c0.9-0.1,1.6,0.5,1.7,1.3c0.1,0.8-0.5,1.6-1.3,1.7l-12,1.5C2525.2,2870.5,2525.1,2870.5,2525.1,2870.5z M2565.1,2865.6
						c-0.8,0-1.4-0.6-1.5-1.3c-0.1-0.8,0.5-1.6,1.3-1.7l12-1.5c0.8-0.1,1.6,0.5,1.7,1.3c0.1,0.8-0.5,1.6-1.3,1.7l-12,1.5
						C2565.2,2865.6,2565.2,2865.6,2565.1,2865.6z M2605.1,2860.7c-0.8,0-1.4-0.6-1.5-1.3c-0.1-0.8,0.5-1.6,1.3-1.7l12-1.5
						c0.9-0.1,1.6,0.5,1.7,1.3c0.1,0.8-0.5,1.6-1.3,1.7l-12,1.5C2605.3,2860.7,2605.2,2860.7,2605.1,2860.7z M2645.2,2855.8
						c-0.8,0-1.4-0.6-1.5-1.3c-0.1-0.8,0.5-1.6,1.3-1.7l12-1.5c0.9-0.1,1.6,0.5,1.7,1.3c0.1,0.8-0.5,1.6-1.3,1.7l-12,1.5
						C2645.3,2855.8,2645.2,2855.8,2645.2,2855.8z M2685.2,2851c-0.8,0-1.4-0.6-1.5-1.3c-0.1-0.8,0.5-1.6,1.3-1.7l12-1.5
						c0.9-0.1,1.6,0.5,1.7,1.3c0.1,0.8-0.5,1.6-1.3,1.7l-12,1.5C2685.3,2850.9,2685.3,2851,2685.2,2851z M2725.2,2846.1
						c-0.8,0-1.4-0.6-1.5-1.3c-0.1-0.8,0.5-1.6,1.3-1.7l12-1.5c0.9-0.1,1.6,0.5,1.7,1.3c0.1,0.8-0.5,1.6-1.3,1.7l-12,1.5
						C2725.4,2846.1,2725.3,2846.1,2725.2,2846.1z M2765.1,2840.2c-0.6,0-1.2-0.4-1.4-1c-0.3-0.8,0.2-1.6,0.9-1.9
						c3.7-1.3,7.2-3,10.4-5.3c0.7-0.5,1.6-0.3,2.1,0.4c0.5,0.7,0.3,1.6-0.4,2.1c-3.4,2.4-7.2,4.3-11.1,5.7
						C2765.4,2840.2,2765.2,2840.2,2765.1,2840.2z M2250.4,2835.3c-0.7,0-1.4-0.5-1.5-1.3l-1.9-11.9c-0.1-0.8,0.4-1.6,1.3-1.7
						c0.8-0.1,1.6,0.4,1.7,1.3l1.9,11.9c0.1,0.8-0.4,1.6-1.3,1.7C2250.6,2835.3,2250.5,2835.3,2250.4,2835.3z M2792.3,2812.4
						c-0.2,0-0.3,0-0.5-0.1c-0.8-0.2-1.2-1.1-1-1.9c1.2-3.7,1.8-7.6,1.9-11.5c0-0.8,0.7-1.5,1.5-1.5c0,0,0,0,0,0
						c0.8,0,1.5,0.7,1.5,1.5c-0.1,4.2-0.8,8.3-2.1,12.3C2793.5,2812,2792.9,2812.4,2792.3,2812.4z M2244,2795.4
						c-0.7,0-1.4-0.5-1.5-1.3l-1.9-11.9c-0.1-0.8,0.4-1.6,1.3-1.7c0.9-0.2,1.6,0.4,1.7,1.3l1.9,11.9c0.1,0.8-0.4,1.6-1.3,1.7
						C2244.2,2795.4,2244.1,2795.4,2244,2795.4z M2794.4,2772.3c-0.8,0-1.5-0.7-1.5-1.5c0-3.9-0.1-7.9-0.2-12.1
						c0-0.8,0.6-1.5,1.5-1.5c0.9-0.1,1.5,0.6,1.5,1.5c0.1,4.2,0.1,8.2,0.2,12.1C2795.9,2771.6,2795.2,2772.3,2794.4,2772.3
						C2794.4,2772.3,2794.4,2772.3,2794.4,2772.3z M2237.6,2755.6c-0.7,0-1.4-0.5-1.5-1.3l-1.9-11.9c-0.1-0.8,0.4-1.6,1.3-1.7
						c0.8-0.1,1.6,0.4,1.7,1.3l1.9,11.9c0.1,0.8-0.4,1.6-1.3,1.7C2237.8,2755.6,2237.7,2755.6,2237.6,2755.6z M2793.2,2732
						c-0.8,0-1.5-0.6-1.5-1.4c-0.2-4-0.4-8-0.7-12.1c-0.1-0.8,0.6-1.6,1.4-1.6c1,0.1,1.6,0.6,1.6,1.4c0.3,4.1,0.5,8.1,0.7,12.1
						C2794.8,2731.2,2794.1,2732,2793.2,2732C2793.3,2732,2793.2,2732,2793.2,2732z M2231.2,2715.8c-0.7,0-1.4-0.5-1.5-1.3
						l-1.9-11.9c-0.1-0.8,0.4-1.6,1.3-1.7c0.9-0.1,1.6,0.4,1.7,1.3l1.9,11.9c0.1,0.8-0.4,1.6-1.3,1.7
						C2231.4,2715.8,2231.3,2715.8,2231.2,2715.8z M2790.3,2691.8c-0.8,0-1.4-0.6-1.5-1.4c-0.4-4-0.8-8-1.3-12
						c-0.1-0.8,0.5-1.6,1.3-1.7c0.8-0.1,1.6,0.5,1.7,1.3c0.5,4,0.9,8.1,1.3,12.1c0.1,0.8-0.5,1.6-1.4,1.7
						C2790.4,2691.8,2790.3,2691.8,2790.3,2691.8z M2224.8,2676c-0.7,0-1.4-0.5-1.5-1.3l-2.2-13.5l11.1-1.4c0.9-0.1,1.6,0.5,1.7,1.3
						c0.1,0.8-0.5,1.6-1.3,1.7l-8,1l1.7,10.4c0.1,0.8-0.4,1.6-1.3,1.7C2225,2676,2224.9,2676,2224.8,2676z M2260.4,2659.2
						c-0.8,0-1.4-0.6-1.5-1.3c-0.1-0.8,0.5-1.6,1.3-1.7l12-1.5c1-0.1,1.6,0.5,1.7,1.3c0.1,0.8-0.5,1.6-1.3,1.7l-12,1.5
						C2260.6,2659.2,2260.5,2659.2,2260.4,2659.2z M2300.5,2654.1c-0.8,0-1.4-0.6-1.5-1.3c-0.1-0.8,0.5-1.6,1.3-1.7l12-1.5
						c1-0.1,1.6,0.5,1.7,1.3c0.1,0.8-0.5,1.6-1.3,1.7l-12,1.5C2300.6,2654.1,2300.5,2654.1,2300.5,2654.1z M2785.3,2651.7
						c-0.7,0-1.4-0.5-1.5-1.3c-0.6-4-1.2-7.9-1.9-11.9c-0.1-0.8,0.4-1.6,1.2-1.7c0.9-0.1,1.6,0.4,1.7,1.2c0.7,4,1.3,8,1.9,12
						c0.1,0.8-0.4,1.6-1.3,1.7C2785.5,2651.7,2785.4,2651.7,2785.3,2651.7z M2340.5,2649c-0.8,0-1.4-0.6-1.5-1.3
						c-0.1-0.8,0.5-1.6,1.3-1.7l12-1.5c0.9-0.1,1.6,0.5,1.7,1.3c0.1,0.8-0.5,1.6-1.3,1.7l-12,1.5
						C2340.6,2649,2340.5,2649,2340.5,2649z M2380.5,2643.9c-0.8,0-1.4-0.6-1.5-1.3c-0.1-0.8,0.5-1.6,1.3-1.7l12-1.5
						c0.9-0.1,1.6,0.5,1.7,1.3c0.1,0.8-0.5,1.6-1.3,1.7l-12,1.5C2380.6,2643.9,2380.5,2643.9,2380.5,2643.9z M2420.5,2638.8
						c-0.8,0-1.4-0.6-1.5-1.3c-0.1-0.8,0.5-1.6,1.3-1.7l12-1.5c0.9-0.1,1.6,0.5,1.7,1.3c0.1,0.8-0.5,1.6-1.3,1.7l-12,1.5
						C2420.6,2638.8,2420.5,2638.8,2420.5,2638.8z M2460.5,2633.7c-0.8,0-1.4-0.6-1.5-1.3c-0.1-0.8,0.5-1.6,1.3-1.7l12-1.5
						c0.9-0.1,1.6,0.5,1.7,1.3c0.1,0.8-0.5,1.6-1.3,1.7l-12,1.5C2460.6,2633.6,2460.5,2633.7,2460.5,2633.7z M2500.5,2628.5
						c-0.8,0-1.4-0.6-1.5-1.3c-0.1-0.8,0.5-1.6,1.3-1.7l12-1.5c0.9-0.1,1.6,0.5,1.7,1.3c0.1,0.8-0.5,1.6-1.3,1.7l-12,1.5
						C2500.6,2628.5,2500.5,2628.5,2500.5,2628.5z M2540.5,2623.4c-0.8,0-1.4-0.6-1.5-1.3c-0.1-0.8,0.5-1.6,1.3-1.7l12-1.5
						c0.9-0.1,1.6,0.5,1.7,1.3c0.1,0.8-0.5,1.6-1.3,1.7l-12,1.5C2540.6,2623.4,2540.5,2623.4,2540.5,2623.4z M2580.5,2618.3
						c-0.8,0-1.4-0.6-1.5-1.3c-0.1-0.8,0.5-1.6,1.3-1.7l12-1.5c1-0.1,1.6,0.5,1.7,1.3c0.1,0.8-0.5,1.6-1.3,1.7l-12,1.5
						C2580.6,2618.3,2580.5,2618.3,2580.5,2618.3z M2620.5,2613.2c-0.8,0-1.4-0.6-1.5-1.3c-0.1-0.8,0.5-1.6,1.3-1.7l12-1.5
						c1-0.1,1.6,0.5,1.7,1.3c0.1,0.8-0.5,1.6-1.3,1.7l-12,1.5C2620.6,2613.2,2620.5,2613.2,2620.5,2613.2z M2778,2612.1
						c-0.7,0-1.3-0.5-1.5-1.2c-0.9-3.9-1.8-7.9-2.7-11.8c-0.2-0.8,0.3-1.6,1.1-1.8c0.8-0.2,1.6,0.3,1.8,1.1c1,3.9,1.9,7.9,2.7,11.8
						c0.2,0.8-0.3,1.6-1.2,1.8C2778.2,2612.1,2778.1,2612.1,2778,2612.1z M2660.5,2608.1c-0.8,0-1.4-0.6-1.5-1.3
						c-0.1-0.8,0.5-1.6,1.3-1.7l12-1.5c0.9-0.1,1.6,0.5,1.7,1.3c0.1,0.8-0.5,1.6-1.3,1.7l-12,1.5
						C2660.6,2608.1,2660.5,2608.1,2660.5,2608.1z M2700.5,2602.9c-0.8,0-1.4-0.6-1.5-1.3c-0.1-0.8,0.5-1.6,1.3-1.7l12-1.5
						c0.9-0.1,1.6,0.5,1.7,1.3c0.1,0.8-0.5,1.6-1.3,1.7l-12,1.5C2700.6,2602.9,2700.5,2602.9,2700.5,2602.9z M2740.5,2597.8
						c-0.8,0-1.4-0.6-1.5-1.3c-0.1-0.8,0.5-1.6,1.3-1.7l12-1.5c0.9-0.1,1.6,0.5,1.7,1.3c0.1,0.8-0.5,1.6-1.3,1.7l-12,1.5
						C2740.6,2597.8,2740.5,2597.8,2740.5,2597.8z"/>
					
						<linearGradient id="SVGID_30_" gradientUnits="userSpaceOnUse" x1="-21.3913" y1="3173.5186" x2="-24.7937" y2="3091.0115" gradientTransform="matrix(0.9919 -0.127 0.127 0.9919 1989.9969 -609.5969)">
						<stop  offset="0" style="stop-color:#E1473D"/>
						<stop  offset="1" style="stop-color:#E9605A"/>
					</linearGradient>
					<path class="st38" d="M2325.6,2507.8l-0.5-15c1.1-3.7,4-6.6,7.8-7.7c14-4.1,49-12.7,67.7-2.1l4.8,16.9L2325.6,2507.8z"/>
					
						<linearGradient id="SVGID_31_" gradientUnits="userSpaceOnUse" x1="-25.6952" y1="3049.6516" x2="-8.6854" y2="3286.0889" gradientTransform="matrix(0.9919 -0.127 0.127 0.9919 1989.9969 -609.5969)">
						<stop  offset="0" style="stop-color:#E1473D"/>
						<stop  offset="1" style="stop-color:#E9605A"/>
					</linearGradient>
					<path class="st39" d="M2368.5,2487.9c-3.2,1.2-6.5,1.6-9.9,1.3c-4.1-0.5-7.4-3.7-7.9-7.8l-5.9-46.3l23.6-3l5.9,46.3
						C2374.8,2482.4,2372.4,2486.4,2368.5,2487.9z"/>
					
						<linearGradient id="SVGID_32_" gradientUnits="userSpaceOnUse" x1="208.4455" y1="3164.0559" x2="205.0431" y2="3081.5496" gradientTransform="matrix(0.9919 -0.127 0.127 0.9919 1989.9969 -609.5969)">
						<stop  offset="0" style="stop-color:#E1473D"/>
						<stop  offset="1" style="stop-color:#E9605A"/>
					</linearGradient>
					<path class="st40" d="M2554,2478.6l-0.5-15c1.1-3.7,4-6.6,7.8-7.7c14-4.1,49-12.7,67.7-2.1l4.8,16.9L2554,2478.6z"/>
					
						<linearGradient id="SVGID_33_" gradientUnits="userSpaceOnUse" x1="203.5237" y1="3033.1782" x2="220.5335" y2="3269.6143" gradientTransform="matrix(0.9919 -0.127 0.127 0.9919 1989.9969 -609.5969)">
						<stop  offset="0" style="stop-color:#E1473D"/>
						<stop  offset="1" style="stop-color:#E9605A"/>
					</linearGradient>
					<path class="st41" d="M2596.9,2458.7c-3.2,1.2-6.5,1.6-9.9,1.3c-4.1-0.5-7.4-3.7-7.9-7.8l-6.6-51.2l23.6-3l6.5,51.2
						C2603.2,2453.2,2600.8,2457.2,2596.9,2458.7z"/>
					
						<linearGradient id="SVGID_34_" gradientUnits="userSpaceOnUse" x1="109.1119" y1="2918.0532" x2="86.1523" y2="3086.4226" gradientTransform="matrix(0.9919 -0.127 0.127 0.9919 1989.9969 -609.5969)">
						<stop  offset="0" style="stop-color:#E1473D"/>
						<stop  offset="1" style="stop-color:#E9605A"/>
					</linearGradient>
					<path class="st42" d="M2343.8,2446.7l252.5-40.8c5.8-0.9,10.1-5.7,10.4-11.5c0.4-8.1,0.1-20.2-3.3-32.2
						c-3.9-13.7-17.3-22.6-31.5-21.1c-47.4,4.9-167.9,20.4-230.9,55.1c-6.7,3.7-11.1,10.3-11.9,17.9c-0.8,7.2-0.7,16.6,2.7,25.8
						C2333.5,2444.6,2338.6,2447.5,2343.8,2446.7z"/>
					<linearGradient id="SVGID_35_" gradientUnits="userSpaceOnUse" x1="2370.8208" y1="2389.1748" x2="2293.033" y2="1947.4009">
						<stop  offset="0" style="stop-color:#FEBBBA"/>
						<stop  offset="1" style="stop-color:#FF928E"/>
					</linearGradient>
					<path class="st43" d="M2337.6,2437c-1.8,0-3.5-1.3-3.9-3.1c-0.1-0.4-2.4-10.3-1-20.4c1.1-8.2,6.6-15.4,14.2-18.7
						c13.7-6,40.1-16.6,62.4-20.1c2.2-0.3,4.3,1.2,4.6,3.4c0.3,2.2-1.2,4.3-3.4,4.6c-22.2,3.5-49.6,14.8-60.4,19.5
						c-5.1,2.2-8.7,7-9.5,12.5c-1.2,8.5,0.8,17.3,0.8,17.4c0.5,2.2-0.9,4.3-3,4.8C2338.2,2436.9,2337.9,2437,2337.6,2437z"/>
					
						<linearGradient id="SVGID_36_" gradientUnits="userSpaceOnUse" x1="116.0243" y1="3049.2024" x2="31.8328" y2="3834.9902" gradientTransform="matrix(0.9919 -0.127 0.127 0.9919 1989.9969 -609.5969)">
						<stop  offset="0" style="stop-color:#FF928E"/>
						<stop  offset="1" style="stop-color:#FE7062"/>
					</linearGradient>
					<path class="st44" d="M2207.3,2517.1c81.8-11.5,435.7-60.6,540.2-61.4c9-0.1,17.1,5.5,20.1,13.9c9.6,26.7,30,89,36.7,152.5
						c0.9,8.6-4.5,16.7-12.8,19.4l-229.3,74.5l-83.5,10.7l-256.7-17.7c-9-0.6-16.5-7.3-18.1-16.2c-5.7-31.6-17.8-106.1-15.4-155.3
						C2189,2527.2,2196.8,2518.6,2207.3,2517.1z"/>
					<path class="st21" d="M2478.3,2707.9l-12.4-0.8c-0.8-0.1-1.5-0.8-1.4-1.6c0.1-0.8,0.8-1.4,1.6-1.4l12.1,0.8l6.5-0.9
						c1-0.1,1.6,0.5,1.7,1.3c0.1,0.8-0.5,1.6-1.3,1.7L2478.3,2707.9z M2437.8,2705.1c0,0-0.1,0-0.1,0l-12.1-0.8
						c-0.8-0.1-1.5-0.8-1.4-1.6c0.1-0.8,0.8-1.4,1.6-1.4l12.1,0.8c0.8,0.1,1.5,0.8,1.4,1.6
						C2439.3,2704.5,2438.6,2705.1,2437.8,2705.1z M2512.8,2703.4c-0.8,0-1.4-0.6-1.5-1.3c-0.1-0.8,0.5-1.6,1.3-1.7l12-1.5
						c1-0.1,1.6,0.5,1.7,1.3c0.1,0.8-0.5,1.6-1.3,1.7l-12,1.5C2513,2703.4,2512.9,2703.4,2512.8,2703.4z M2397.6,2702.3
						c0,0-0.1,0-0.1,0l-12.1-0.8c-0.8-0.1-1.5-0.8-1.4-1.6c0.1-0.8,0.8-1.4,1.6-1.4l12.1,0.8c0.8,0.1,1.5,0.8,1.4,1.6
						C2399.1,2701.7,2398.4,2702.3,2397.6,2702.3z M2357.4,2699.5c0,0-0.1,0-0.1,0l-12.1-0.8c-0.8-0.1-1.5-0.8-1.4-1.6
						c0.1-0.8,0.8-1.4,1.6-1.4l12.1,0.8c0.8,0.1,1.5,0.8,1.4,1.6C2358.8,2698.9,2358.2,2699.5,2357.4,2699.5z M2552.8,2698.3
						c-0.8,0-1.4-0.6-1.5-1.3c-0.1-0.8,0.5-1.6,1.3-1.7l4.8-0.6l6.6-2.2c0.8-0.2,1.7,0.2,1.9,1c0.3,0.8-0.2,1.7-1,1.9l-6.9,2.2
						l-5.1,0.7C2553,2698.3,2552.9,2698.3,2552.8,2698.3z M2317.2,2696.8c0,0-0.1,0-0.1,0l-12.1-0.8c-0.8-0.1-1.5-0.8-1.4-1.6
						c0.1-0.8,0.8-1.3,1.6-1.4l12.1,0.8c0.8,0.1,1.5,0.8,1.4,1.6C2318.6,2696.2,2317.9,2696.8,2317.2,2696.8z M2276.9,2694
						c0,0-0.1,0-0.1,0l-12.1-0.8c-0.8-0.1-1.5-0.8-1.4-1.6c0.1-0.8,0.8-1.3,1.6-1.4l12.1,0.8c0.8,0.1,1.5,0.8,1.4,1.6
						C2278.4,2693.4,2277.7,2694,2276.9,2694z M2236.7,2691.2c0,0-0.1,0-0.1,0l-12.1-0.8c-0.8-0.1-1.5-0.8-1.4-1.6
						c0.1-0.8,0.9-1.4,1.6-1.4l12.1,0.8c0.8,0.1,1.5,0.8,1.4,1.6C2238.1,2690.6,2237.5,2691.2,2236.7,2691.2z M2591.4,2686.7
						c-0.6,0-1.2-0.4-1.4-1c-0.3-0.8,0.2-1.7,1-1.9l11.5-3.7c0.8-0.2,1.6,0.2,1.9,1c0.3,0.8-0.2,1.7-1,1.9l-11.5,3.7
						C2591.7,2686.7,2591.6,2686.7,2591.4,2686.7z M2629.8,2674.3c-0.6,0-1.2-0.4-1.4-1c-0.3-0.8,0.2-1.7,1-1.9l11.5-3.7
						c0.8-0.2,1.6,0.2,1.9,1c0.3,0.8-0.2,1.7-1,1.9l-11.5,3.7C2630.1,2674.2,2629.9,2674.3,2629.8,2674.3z M2219.3,2663.2
						c-0.7,0-1.4-0.5-1.5-1.3c-0.6-3.8-1.2-7.8-1.8-12c-0.1-0.8,0.5-1.6,1.3-1.7c0.8-0.1,1.6,0.4,1.7,1.3c0.6,4.1,1.2,8.1,1.8,12
						c0.1,0.8-0.4,1.6-1.3,1.7C2219.4,2663.2,2219.3,2663.2,2219.3,2663.2z M2668.1,2661.8c-0.6,0-1.2-0.4-1.4-1
						c-0.3-0.8,0.2-1.7,1-1.9l11.5-3.7c0.8-0.2,1.7,0.2,1.9,1c0.3,0.8-0.2,1.7-1,1.9l-11.5,3.7
						C2668.4,2661.8,2668.3,2661.8,2668.1,2661.8z M2706.5,2649.3c-0.6,0-1.2-0.4-1.4-1c-0.3-0.8,0.2-1.7,1-1.9l11.5-3.7
						c0.8-0.2,1.6,0.2,1.9,1c0.3,0.8-0.2,1.7-1,1.9l-11.5,3.7C2706.8,2649.3,2706.6,2649.3,2706.5,2649.3z M2744.8,2636.9
						c-0.6,0-1.2-0.4-1.4-1c-0.3-0.8,0.2-1.7,1-1.9l11.5-3.7c0.8-0.2,1.6,0.2,1.9,1c0.3,0.8-0.2,1.7-1,1.9l-11.5,3.7
						C2745.1,2636.8,2745,2636.9,2744.8,2636.9z M2783.2,2624.4c-0.6,0-1.2-0.4-1.4-1c-0.2-0.6,0-1.2,0.4-1.5
						c-0.4-3.4-0.8-6.9-1.3-10.3c-0.1-0.8,0.5-1.6,1.3-1.7c0.8-0.1,1.6,0.5,1.7,1.3c0.5,3.8,1,7.6,1.4,11.5l0.1,1.2l-1.7,0.6
						C2783.5,2624.4,2783.3,2624.4,2783.2,2624.4z M2213.6,2623.3c-0.8,0-1.4-0.6-1.5-1.3c-0.5-4-1-8-1.4-12
						c-0.1-0.8,0.5-1.6,1.3-1.7c0.9,0,1.6,0.5,1.7,1.3c0.4,4,0.9,8,1.4,12c0.1,0.8-0.5,1.6-1.3,1.7
						C2213.8,2623.3,2213.7,2623.3,2213.6,2623.3z M2777.8,2584.9c-0.7,0-1.3-0.5-1.5-1.2c-0.8-4-1.6-7.9-2.4-11.8
						c-0.2-0.8,0.3-1.6,1.2-1.8c0.9-0.2,1.6,0.4,1.8,1.2c0.8,3.9,1.6,7.9,2.4,11.9c0.2,0.8-0.4,1.6-1.2,1.8
						C2778,2584.9,2777.9,2584.9,2777.8,2584.9z M2209.7,2583.1c-0.8,0-1.5-0.6-1.5-1.4c-0.3-4.1-0.5-8.1-0.7-12.1
						c0-0.8,0.6-1.5,1.4-1.6c0.9-0.2,1.5,0.6,1.6,1.4c0.2,4,0.4,8,0.7,12.1c0.1,0.8-0.6,1.6-1.4,1.6
						C2209.8,2583.1,2209.7,2583.1,2209.7,2583.1z M2769,2545.6c-0.7,0-1.3-0.5-1.5-1.1c-1-4-2.1-7.9-3.1-11.7
						c-0.2-0.8,0.3-1.6,1.1-1.9c0.8-0.2,1.6,0.3,1.9,1.1c1,3.8,2.1,7.7,3.1,11.7c0.2,0.8-0.3,1.6-1.1,1.8
						C2769.2,2545.5,2769.1,2545.6,2769,2545.6z M2208.8,2542.8C2208.7,2542.8,2208.7,2542.8,2208.8,2542.8c-0.9,0-1.5-0.7-1.5-1.6
						l0.1-2.6c0.1-1.4,1.1-2.6,2.5-2.8l7.5-1c0.8-0.2,1.6,0.5,1.7,1.3c0.1,0.8-0.5,1.6-1.3,1.7l-7.4,1l0,2.5
						C2210.2,2542.2,2209.6,2542.8,2208.8,2542.8z M2245.5,2533.9c-0.7,0-1.4-0.6-1.5-1.3c-0.1-0.8,0.5-1.6,1.3-1.7l12-1.7
						c0.9-0.1,1.6,0.5,1.7,1.3c0.1,0.8-0.5,1.6-1.3,1.7l-12,1.7C2245.7,2533.9,2245.6,2533.9,2245.5,2533.9z M2285.5,2528.4
						c-0.7,0-1.4-0.6-1.5-1.3c-0.1-0.8,0.5-1.6,1.3-1.7l12-1.6c0.9-0.1,1.6,0.5,1.7,1.3c0.1,0.8-0.5,1.6-1.3,1.7l-12,1.6
						C2285.6,2528.4,2285.6,2528.4,2285.5,2528.4z M2325.5,2523c-0.7,0-1.4-0.6-1.5-1.3c-0.1-0.8,0.5-1.6,1.3-1.7l12-1.6
						c0.8-0.1,1.6,0.5,1.7,1.3c0.1,0.8-0.5,1.6-1.3,1.7l-12,1.6C2325.6,2523,2325.5,2523,2325.5,2523z M2365.5,2517.7
						c-0.7,0-1.4-0.6-1.5-1.3c-0.1-0.8,0.5-1.6,1.3-1.7l12-1.6c0.8-0.1,1.6,0.5,1.7,1.3c0.1,0.8-0.5,1.6-1.3,1.7l-12,1.6
						C2365.6,2517.7,2365.5,2517.7,2365.5,2517.7z M2405.5,2512.5c-0.8,0-1.4-0.6-1.5-1.3c-0.1-0.8,0.5-1.6,1.3-1.7l12-1.5
						c0.9-0.1,1.6,0.5,1.7,1.3c0.1,0.8-0.5,1.6-1.3,1.7l-12,1.5C2405.6,2512.5,2405.5,2512.5,2405.5,2512.5z M2445.7,2507.4l-0.4-3
						l11.9-1.5c0.9-0.1,1.6,0.5,1.7,1.3c0.1,0.8-0.5,1.6-1.3,1.7L2445.7,2507.4z M2757.9,2506.8c-0.6,0-1.2-0.4-1.4-1.1
						c-1.3-4.1-2.5-8-3.7-11.5c-0.3-0.8,0.2-1.6,1-1.9c0.8-0.3,1.6,0.2,1.9,1c1.2,3.6,2.4,7.4,3.7,11.5c0.2,0.8-0.2,1.6-1,1.9
						C2758.2,2506.7,2758.1,2506.8,2757.9,2506.8z M2445.5,2505.9L2445.5,2505.9L2445.5,2505.9z M2485.5,2502.4
						c-0.8,0-1.4-0.6-1.5-1.3c-0.1-0.8,0.5-1.6,1.3-1.7l12-1.5c0.8-0.1,1.6,0.5,1.7,1.3c0.1,0.8-0.5,1.6-1.3,1.7l-12,1.5
						C2485.6,2502.4,2485.6,2502.4,2485.5,2502.4z M2525.5,2497.6c-0.8,0-1.4-0.6-1.5-1.3c-0.1-0.8,0.5-1.6,1.3-1.7l12-1.4
						c0.9-0.1,1.6,0.5,1.7,1.3c0.1,0.8-0.5,1.6-1.3,1.7l-12,1.4C2525.7,2497.6,2525.6,2497.6,2525.5,2497.6z M2565.6,2493
						c-0.8,0-1.4-0.6-1.5-1.3c-0.1-0.8,0.5-1.6,1.3-1.7l12-1.3c0.8-0.1,1.6,0.5,1.7,1.3s-0.5,1.6-1.3,1.7l-12,1.3
						C2565.7,2493,2565.7,2493,2565.6,2493z M2605.7,2488.6c-0.8,0-1.4-0.6-1.5-1.4c-0.1-0.8,0.5-1.6,1.3-1.7l12-1.3
						c0.8-0.1,1.6,0.5,1.7,1.4c0.1,0.8-0.5,1.6-1.4,1.7l-12,1.3C2605.8,2488.6,2605.8,2488.6,2605.7,2488.6z M2645.8,2484.6
						c-0.8,0-1.4-0.6-1.5-1.4c-0.1-0.8,0.5-1.6,1.4-1.6c4.1-0.4,8.1-0.8,12.1-1.1c0.9-0.1,1.6,0.5,1.6,1.4c0.1,0.8-0.5,1.6-1.4,1.6
						c-3.9,0.4-7.9,0.7-12,1.1C2645.9,2484.6,2645.9,2484.6,2645.8,2484.6z M2686,2481c-0.8,0-1.4-0.6-1.5-1.4
						c-0.1-0.8,0.6-1.6,1.4-1.6c4.2-0.3,8.2-0.6,12.1-0.9c1,0.1,1.6,0.6,1.6,1.4c0.1,0.8-0.6,1.6-1.4,1.6c-3.9,0.3-7.9,0.6-12.1,0.9
						C2686.1,2481,2686.1,2481,2686,2481z M2726.3,2478.4c-0.8,0-1.5-0.6-1.5-1.4c0-0.8,0.6-1.5,1.4-1.6c4.3-0.2,8.4-0.4,12.1-0.5
						c0,0,0,0,0,0c0.8,0,1.5,0.6,1.5,1.5c0,0.8-0.6,1.5-1.5,1.6C2734.7,2478,2730.6,2478.1,2726.3,2478.4
						C2726.3,2478.4,2726.3,2478.4,2726.3,2478.4z"/>
					
						<linearGradient id="SVGID_37_" gradientUnits="userSpaceOnUse" x1="122.1267" y1="3146.1741" x2="88.9593" y2="3408.9609" gradientTransform="matrix(0.9919 -0.127 0.127 0.9919 1989.9969 -609.5969)">
						<stop  offset="0" style="stop-color:#E1473D"/>
						<stop  offset="1" style="stop-color:#E9605A"/>
					</linearGradient>
					<path class="st45" d="M2558.8,2752.2l-73.1,9.4c-9.6,1.2-18.6-4.9-20.9-14.2l-17.5-69.3c-2.8-11,4.8-22,16.1-23.5l87.8-11.2
						c11.1-1.4,21,6.9,21.5,18.1l2.7,71.2C2575.8,2742.5,2568.6,2751,2558.8,2752.2z"/>
					
						<linearGradient id="SVGID_38_" gradientUnits="userSpaceOnUse" x1="51.0426" y1="3352.3518" x2="147.4895" y2="3352.3518" gradientTransform="matrix(0.9919 -0.127 0.127 0.9919 1989.9969 -609.5969)">
						<stop  offset="0" style="stop-color:#FF928E"/>
						<stop  offset="1" style="stop-color:#FE7062"/>
					</linearGradient>
					<path class="st46" d="M2548.1,2740.4l-55.7,7.1c-7.3,0.9-14.1-3.7-15.9-10.8l-13.3-52.7c-2.1-8.4,3.6-16.8,12.2-17.9l66.9-8.6
						c8.5-1.1,16,5.3,16.3,13.8l2.1,54.2C2561.1,2733,2555.6,2739.5,2548.1,2740.4z"/>
				</g>
				<linearGradient id="SVGID_39_" gradientUnits="userSpaceOnUse" x1="2570.4353" y1="2219.561" x2="2383.6262" y2="2578.8096">
					<stop  offset="0" style="stop-color:#FEBBBA"/>
					<stop  offset="1" style="stop-color:#FF928E"/>
				</linearGradient>
				<path class="st47" d="M2504.6,2179.7c17.2,71.3,17.7,141,15.1,166.4c-1,9.6-8.7,17-18.3,17.7c-10.9,0.8-25.7,1.8-39,2.5
					c-14.6,0.8-30.8-8.4-41.6-16.1c-5.5-3.9-12.7,2.2-9.6,8.2c5.3,10.4,14.5,18.6,23.7,25.6c5.5,4.2,23.8,11.6,22.6,19.9
					c-0.4,2.6-2,4.9-3.7,6.9c-10.2,12.2-25.6,18.7-40.8,23.4c-1.9,0.6-3.9,1.2-5.3,2.7c-0.4,9.8,29.9,20.8,37.7,23.3
					c11.7,3.9,24.1,5.5,36.4,4.2c30.4-3.2,58.5-24.2,74.9-49.5c43.8-67.7,66.5-149.5,74.7-212
					C2590.8,2162.2,2529.2,2172.6,2504.6,2179.7z"/>
				<g>
					<path class="st25" d="M2631.5,2209.4c32.5-245.5-156.7-434.3-156.7-434.3l-112.6,131.2c85.5,106.5,126.1,204.2,144.7,280.8
						C2531.5,2180,2590.8,2168.7,2631.5,2209.4z"/>
					<path class="st48" d="M2504.2,2186c-3.1,0-6-2.1-6.8-5.3c-22.9-94.5-71.1-188.1-143.3-278.1c-2.4-3-1.9-7.4,1.1-9.8
						c3-2.4,7.4-1.9,9.8,1.1c73.5,91.6,122.6,187,146,283.6c0.9,3.7-1.4,7.5-5.1,8.4C2505.3,2185.9,2504.8,2186,2504.2,2186z"/>
				</g>
			</g>
			<g>
				<g>
					
						<linearGradient id="SVGID_40_" gradientUnits="userSpaceOnUse" x1="-471.4034" y1="3584.3479" x2="-310.6407" y2="3584.3479" gradientTransform="matrix(1 0 0 1 1290.1023 0)">
						<stop  offset="0" style="stop-color:#09005D"/>
						<stop  offset="1" style="stop-color:#1A0F91"/>
					</linearGradient>
					<path class="st49" d="M979.5,3641.6c0-1.2-0.1-2.4-0.4-3.6c-18.1-71.8-108-116.5-108-116.5l-35.6,2.8
						c-20.5,63.3-17.8,102.1-14.6,119.4c0.1,0.5,0.2,0.9,0.4,1.4C850.7,3647.7,911.2,3649.4,979.5,3641.6z"/>
					
						<linearGradient id="SVGID_41_" gradientUnits="userSpaceOnUse" x1="-68.9422" y1="3394.6934" x2="-653.8019" y2="3853.9268" gradientTransform="matrix(1 0 0 1 1290.1023 0)">
						<stop  offset="0" style="stop-color:#4042E2"/>
						<stop  offset="1" style="stop-color:#4F52FF"/>
					</linearGradient>
					<path class="st50" d="M821.3,3645c1.6,5.8,5.8,10.3,11.3,11.4c41.8,8.8,108.2,1.7,136.1-1.9c6.2-0.8,10.6-6.5,10.8-12.9
						C911.2,3649.4,850.7,3647.7,821.3,3645z"/>
					
						<linearGradient id="SVGID_42_" gradientUnits="userSpaceOnUse" x1="-426.6969" y1="3401.3267" x2="-457.4052" y2="3669.3284" gradientTransform="matrix(1 0 0 1 1290.1023 0)">
						<stop  offset="0" style="stop-color:#A22B25"/>
						<stop  offset="1" style="stop-color:#C0423C"/>
					</linearGradient>
					<path class="st51" d="M821.2,3471.2l15.1,72.6c1.1,5.3,5.2,9.3,10.1,9.8c6.1,0.6,14.7,0.9,23.4-0.4c7.8-1.1,13.2-9,11.8-17.5
						l-10.5-64.5H821.2z"/>
					
						<linearGradient id="SVGID_43_" gradientUnits="userSpaceOnUse" x1="34.955" y1="3526.8215" x2="-549.9058" y2="3986.0559" gradientTransform="matrix(1 0 0 1 1290.1023 0)">
						<stop  offset="0" style="stop-color:#4042E2"/>
						<stop  offset="1" style="stop-color:#4F52FF"/>
					</linearGradient>
					<path class="st52" d="M1133.7,3644.1c-39.3-1.1-59.7-5.7-70.2-10c0,3.9,0,7.9,0.1,12c0.1,4.4,3.4,7.9,7.4,7.9l215.9-1.4
						c6.9,0,10.9-8,7.9-14.4C1266.6,3640.6,1194.5,3645.8,1133.7,3644.1z"/>
					
						<linearGradient id="SVGID_44_" gradientUnits="userSpaceOnUse" x1="-226.6046" y1="3588.4338" x2="4.8113" y2="3588.4338" gradientTransform="matrix(1 0 0 1 1290.1023 0)">
						<stop  offset="0" style="stop-color:#09005D"/>
						<stop  offset="1" style="stop-color:#1A0F91"/>
					</linearGradient>
					<path class="st53" d="M1294.9,3638.2c-0.3-0.5-0.5-1.1-0.9-1.6c-19.1-26.6-67.6-79.7-163.6-102.7l-46-1.5
						c0,0-20.5,35.6-20.9,101.6c10.5,4.3,30.9,8.9,70.2,10C1194.5,3645.8,1266.6,3640.6,1294.9,3638.2z"/>
					
						<linearGradient id="SVGID_45_" gradientUnits="userSpaceOnUse" x1="-95.6737" y1="3364.5786" x2="-126.3826" y2="3632.5845" gradientTransform="matrix(0.998 -6.290000e-02 6.290000e-02 0.998 993.2088 65.7657)">
						<stop  offset="0" style="stop-color:#A22B25"/>
						<stop  offset="1" style="stop-color:#C0423C"/>
					</linearGradient>
					<path class="st54" d="M1073.8,3464.8c0.7,3.4,10.3,55.1,14,75.1c0.9,4.8,4.6,8.3,9,8.5c7.9,0.4,20.6,0.5,31.5-2.5
						c5.9-1.6,9.9-7.6,9.4-14.3l-5.2-81.7L1073.8,3464.8z"/>
					<linearGradient id="SVGID_46_" gradientUnits="userSpaceOnUse" x1="854.928" y1="3707.7944" x2="1082.2775" y2="2043.9995">
						<stop  offset="0" style="stop-color:#4F52FF"/>
						<stop  offset="1" style="stop-color:#4042E2"/>
					</linearGradient>
					<path class="st55" d="M1038.9,2510.9c0,0,63.3,435.2,109,953.2c0.9,9.6-6.8,18-16.3,20c-14,2.9-34.5,6.4-51.5,6
						c-9.1-0.3-16.7-7-18.2-15.9c-15.6-91.3-126.7-581.4-155.9-689.3c0,0-33.5,458.2-22.8,695.9c0.3,5.9-4.1,11-9.9,11.7
						c-8.9,1-23.2,1.8-41.3-0.1c-6.9-0.7-12.4-5.9-13.4-12.8c-11.1-77.3-74.9-537.3-72.2-868.7c0.2-18.7,21.9-172.2,21.9-172.2
						L1038.9,2510.9z"/>
				</g>
				
					<linearGradient id="SVGID_47_" gradientUnits="userSpaceOnUse" x1="3676.8521" y1="-1704.1577" x2="2705.2449" y2="-717.8737" gradientTransform="matrix(0.991 -0.1339 0.1339 0.991 690.6002 157.8111)">
					<stop  offset="0" style="stop-color:#FF928E"/>
					<stop  offset="1" style="stop-color:#FE7062"/>
				</linearGradient>
				<path class="st56" d="M758.8,2536c-6.5-2.3-11.1-8.2-11.8-15.1c-8.4-81.7-49.2-588.4,208.3-796.8c0,0,14.8-38.6,136.1,56.3
					c121.4,95,56.4,194.5,27.3,331.8c-35.2,166.1-96.9,301.9-69.6,404.2c1.9,7.1-1.8,14.5-8.7,17
					C946.3,2568,852.4,2569.2,758.8,2536z"/>
				<linearGradient id="SVGID_48_" gradientUnits="userSpaceOnUse" x1="956.5466" y1="1877.3575" x2="1121.8925" y2="1505.3296">
					<stop  offset="0" style="stop-color:#A22B25"/>
					<stop  offset="1" style="stop-color:#C0423C"/>
				</linearGradient>
				<path class="st57" d="M1055.8,1572.2c-0.1,7.2-102.9,153.2-102.9,153.2s18.5,36.3,106.6,65.9l76-156.4L1055.8,1572.2z"/>
				<g>
					<linearGradient id="SVGID_49_" gradientUnits="userSpaceOnUse" x1="901.8128" y1="1294.9036" x2="1136.6431" y2="1653.0193">
						<stop  offset="0" style="stop-color:#A22B25"/>
						<stop  offset="1" style="stop-color:#C0423C"/>
					</linearGradient>
					<path class="st58" d="M1136.7,1488.5c0,0,36.6,84,39,128.1c2.5,44.1,12,72.7-39,81.6c-51,8.9-94-16.5-117.2-60.5
						c0,0-36.5-67.7-28.3-95.4C999.4,1514.7,1136.7,1488.5,1136.7,1488.5z"/>
					<linearGradient id="SVGID_50_" gradientUnits="userSpaceOnUse" x1="923.7974" y1="1357.5288" x2="1100.1334" y2="1564.0596">
						<stop  offset="0" style="stop-color:#09005D"/>
						<stop  offset="1" style="stop-color:#1A0F91"/>
					</linearGradient>
					<path class="st59" d="M1036.9,1606.2l2.9-1.3c3.7-1.6,5.3-6,3.4-9.6c-7.2-13.9-21.2-45.7-3.1-53.2
						c23.3-9.6,115.8-28.4,135.7-61.2c19.2-31.5,2.2-72.2-23.3-83.8c-1.7-0.8-3.7-0.2-4.6,1.5l-2.1,4c-1.5,2.8-5.5,2.3-6.4-0.7l0,0
						c-0.8-2.9-4.7-3.4-6.2-0.9c-6.1,9.8-22.7,25.7-67,33.9c-62.9,11.6-104.5,37.1-105.6,80.6c-0.1,2.8-3,4.3-5.4,2.9
						c-4.6-2.8-12.1-4.2-22,4.2c-17.3,14.5-10.2,52.2,27.7,83.2c1.8,1.5,1.8,4.3-0.2,5.6c-6.9,4.5-17.1,15.1,9.4,29.3
						c27.4,14.7,47.9,13.5,55.8,12.2c2-0.3,3.2-2.2,2.8-4.2l-8.4-38.2c-0.5-2.2,1.2-4.2,3.4-4.2H1036.9z"/>
					<linearGradient id="SVGID_51_" gradientUnits="userSpaceOnUse" x1="840.4081" y1="1335.1691" x2="1075.2385" y2="1693.285">
						<stop  offset="0" style="stop-color:#A22B25"/>
						<stop  offset="1" style="stop-color:#C0423C"/>
					</linearGradient>
					<path class="st60" d="M1038.5,1614.3c0,0-14-53.7-38-38.6c-24.1,15.1,12.5,60.1,31.8,62.2L1038.5,1614.3z"/>
				</g>
				<g>
					<linearGradient id="SVGID_52_" gradientUnits="userSpaceOnUse" x1="2231.1926" y1="843.2795" x2="1259.5844" y2="1829.5651">
						<stop  offset="0" style="stop-color:#FF928E"/>
						<stop  offset="1" style="stop-color:#FE7062"/>
					</linearGradient>
					<path class="st61" d="M1130.5,1824.4l7.1,190.4c20.1,6.9,39.3,12.3,57.6,16.3c11.4-36.8,36.6-81.9,57.1-115.4
						C1176.7,1889,1130.5,1824.4,1130.5,1824.4z"/>
					<linearGradient id="SVGID_53_" gradientUnits="userSpaceOnUse" x1="1645.1001" y1="1805.1882" x2="1196.4471" y2="2028.3683">
						<stop  offset="0" style="stop-color:#A22B25"/>
						<stop  offset="1" style="stop-color:#C0423C"/>
					</linearGradient>
					<path class="st62" d="M1508.1,1821.2c-103.8,112-187.7,118.6-255.8,94.5c-20.6,33.5-45.7,78.7-57.1,115.4
						c277.1,61.1,342.3-193.6,342.3-193.6L1508.1,1821.2z"/>
					<linearGradient id="SVGID_54_" gradientUnits="userSpaceOnUse" x1="1638.5322" y1="1749.2136" x2="1485.0693" y2="1909.4973">
						<stop  offset="0" style="stop-color:#A22B25"/>
						<stop  offset="1" style="stop-color:#C0423C"/>
					</linearGradient>
					<path class="st63" d="M1529.2,1809.3c0,0,12-12.8,34.1-8.8c22.1,4,41.8,11.7,55.6,0c13.8-11.7,18.6,4,18.6,4l-41.3,31.4
						L1529.2,1809.3z"/>
					<linearGradient id="SVGID_55_" gradientUnits="userSpaceOnUse" x1="1647.2328" y1="1802.5432" x2="1198.5812" y2="2025.7225">
						<stop  offset="0" style="stop-color:#A22B25"/>
						<stop  offset="1" style="stop-color:#C0423C"/>
					</linearGradient>
					<path class="st64" d="M1504.5,1831.2c0,0,8.2-34.2,32.9-29.5s80.7,35.2,95.1,29.5c14.4-5.6,32.9-19,42.4-14.3l-16.7,20.7
						c0,0,42.9-24.7,50.3-9.5l-71.4,40.2C1637.1,1868.3,1532.7,1857.8,1504.5,1831.2z"/>
				</g>
				<linearGradient id="SVGID_56_" gradientUnits="userSpaceOnUse" x1="1834.7184" y1="2181.2185" x2="532.6896" y2="1945.7755">
					<stop  offset="0" style="stop-color:#A22B25"/>
					<stop  offset="1" style="stop-color:#C0423C"/>
				</linearGradient>
				<path class="st65" d="M1015.3,2073.6c0,0,195.1,163.4,405.7,92.1c13.1-4.4,27.3-3.5,39.5,3l60.6,32
					c25.4,13.4,56.9,4.6,71.6-20.1c8.4-14.1,15.6-30.1,17-45.5l-118.5-48l8.7-14.5c0,0-57.9-4.9-73,36.6c0,0-110.2,45.8-296-158.6
					C1131,1950.5,1046.7,2022.2,1015.3,2073.6z"/>
				<linearGradient id="SVGID_57_" gradientUnits="userSpaceOnUse" x1="1372.4741" y1="1189.1333" x2="196.9149" y2="3408.1699">
					<stop  offset="0" style="stop-color:#E1473D"/>
					<stop  offset="1" style="stop-color:#E9605A"/>
				</linearGradient>
				<path class="st66" d="M1004.8,2071.9c-0.6,0-1.3-0.2-1.9-0.6c-82.1-55.5-120.8-145.1-121.2-146c-0.7-1.7,0.1-3.7,1.8-4.4
					c1.7-0.7,3.7,0.1,4.4,1.8c0.4,0.9,38.3,88.7,118.7,143c1.5,1,1.9,3.1,0.9,4.6C1007,2071.4,1005.9,2071.9,1004.8,2071.9z"/>
				<linearGradient id="SVGID_58_" gradientUnits="userSpaceOnUse" x1="1376.576" y1="1191.3104" x2="201.0171" y2="3410.3464">
					<stop  offset="0" style="stop-color:#E1473D"/>
					<stop  offset="1" style="stop-color:#E9605A"/>
				</linearGradient>
				<path class="st67" d="M1127.2,1947.8c-1.1,0-2.2-0.5-2.8-1.5c-0.2-0.4-25.3-39.4-73.1-125c-14.7-26.3-34-43-57.4-49.5
					c-38.7-10.8-76.1,9.9-76.5,10.2c-1.6,0.9-3.6,0.4-4.6-1.3c-0.9-1.6-0.4-3.6,1.3-4.6c1.6-0.9,40-22.4,81.5-10.8
					c25.2,7,45.9,24.8,61.5,52.7c47.7,85.4,72.7,124.3,72.9,124.7c1,1.5,0.6,3.6-1,4.6C1128.4,1947.6,1127.8,1947.8,1127.2,1947.8z"
					/>
			</g>
		</g>
	</g>
</g>
</svg>
